<mxfile host="app.diagrams.net" modified="2023-10-12T10:11:47.385Z" agent="Mozilla/5.0 (X11; Linux x86_64) AppleWebKit/537.36 (KHTML, like Gecko) Chrome/118.0.0.0 Safari/537.36" etag="rq6NCZw7JHNIdR0XooGb" version="22.0.4" type="device">
  <diagram id="C5RBs43oDa-KdzZeNtuy" name="Page-1">
    <mxGraphModel dx="1620" dy="980" grid="0" gridSize="10" guides="1" tooltips="1" connect="1" arrows="1" fold="1" page="0" pageScale="1" pageWidth="827" pageHeight="1169" math="0" shadow="0">
      <root>
        <mxCell id="WIyWlLk6GJQsqaUBKTNV-0" />
        <mxCell id="WIyWlLk6GJQsqaUBKTNV-1" parent="WIyWlLk6GJQsqaUBKTNV-0" />
        <mxCell id="y1ir7VsaiNvri5X7GH3_-19" style="edgeStyle=orthogonalEdgeStyle;rounded=0;orthogonalLoop=1;jettySize=auto;html=1;exitX=1;exitY=0.5;exitDx=0;exitDy=0;entryX=0;entryY=0.5;entryDx=0;entryDy=0;" parent="WIyWlLk6GJQsqaUBKTNV-1" source="y1ir7VsaiNvri5X7GH3_-0" target="y1ir7VsaiNvri5X7GH3_-15" edge="1">
          <mxGeometry relative="1" as="geometry" />
        </mxCell>
        <mxCell id="y1ir7VsaiNvri5X7GH3_-23" style="edgeStyle=orthogonalEdgeStyle;rounded=0;orthogonalLoop=1;jettySize=auto;html=1;exitX=0.25;exitY=1;exitDx=0;exitDy=0;entryX=0.25;entryY=0;entryDx=0;entryDy=0;" parent="WIyWlLk6GJQsqaUBKTNV-1" source="y1ir7VsaiNvri5X7GH3_-0" target="y1ir7VsaiNvri5X7GH3_-1" edge="1">
          <mxGeometry relative="1" as="geometry" />
        </mxCell>
        <mxCell id="y1ir7VsaiNvri5X7GH3_-25" style="edgeStyle=orthogonalEdgeStyle;rounded=0;orthogonalLoop=1;jettySize=auto;html=1;exitX=0.5;exitY=0;exitDx=0;exitDy=0;entryX=0;entryY=0.5;entryDx=0;entryDy=0;" parent="WIyWlLk6GJQsqaUBKTNV-1" source="y1ir7VsaiNvri5X7GH3_-0" target="y1ir7VsaiNvri5X7GH3_-3" edge="1">
          <mxGeometry relative="1" as="geometry" />
        </mxCell>
        <mxCell id="y1ir7VsaiNvri5X7GH3_-31" style="edgeStyle=orthogonalEdgeStyle;rounded=0;orthogonalLoop=1;jettySize=auto;html=1;exitX=0.25;exitY=0;exitDx=0;exitDy=0;entryX=0;entryY=0.5;entryDx=0;entryDy=0;" parent="WIyWlLk6GJQsqaUBKTNV-1" source="y1ir7VsaiNvri5X7GH3_-0" target="y1ir7VsaiNvri5X7GH3_-2" edge="1">
          <mxGeometry relative="1" as="geometry" />
        </mxCell>
        <mxCell id="y1ir7VsaiNvri5X7GH3_-49" style="edgeStyle=orthogonalEdgeStyle;rounded=0;orthogonalLoop=1;jettySize=auto;html=1;exitX=1;exitY=0;exitDx=0;exitDy=0;entryX=0;entryY=0.75;entryDx=0;entryDy=0;" parent="WIyWlLk6GJQsqaUBKTNV-1" source="y1ir7VsaiNvri5X7GH3_-0" target="y1ir7VsaiNvri5X7GH3_-4" edge="1">
          <mxGeometry relative="1" as="geometry">
            <Array as="points">
              <mxPoint x="312" y="303" />
              <mxPoint x="312" y="202" />
            </Array>
          </mxGeometry>
        </mxCell>
        <mxCell id="y1ir7VsaiNvri5X7GH3_-0" value="目錄主頁面" style="rounded=1;whiteSpace=wrap;html=1;fillColor=#ffe6cc;strokeColor=#d79b00;" parent="WIyWlLk6GJQsqaUBKTNV-1" vertex="1">
          <mxGeometry x="-77" y="303" width="123" height="64" as="geometry" />
        </mxCell>
        <mxCell id="y1ir7VsaiNvri5X7GH3_-24" style="edgeStyle=orthogonalEdgeStyle;rounded=0;orthogonalLoop=1;jettySize=auto;html=1;exitX=0.75;exitY=0;exitDx=0;exitDy=0;" parent="WIyWlLk6GJQsqaUBKTNV-1" source="y1ir7VsaiNvri5X7GH3_-1" target="y1ir7VsaiNvri5X7GH3_-0" edge="1">
          <mxGeometry relative="1" as="geometry" />
        </mxCell>
        <mxCell id="y1ir7VsaiNvri5X7GH3_-1" value="快速查看空位" style="rounded=1;whiteSpace=wrap;html=1;" parent="WIyWlLk6GJQsqaUBKTNV-1" vertex="1">
          <mxGeometry x="-90" y="496" width="120" height="56" as="geometry" />
        </mxCell>
        <mxCell id="y1ir7VsaiNvri5X7GH3_-32" style="edgeStyle=orthogonalEdgeStyle;rounded=0;orthogonalLoop=1;jettySize=auto;html=1;exitX=0;exitY=0.75;exitDx=0;exitDy=0;entryX=0.75;entryY=0;entryDx=0;entryDy=0;" parent="WIyWlLk6GJQsqaUBKTNV-1" source="y1ir7VsaiNvri5X7GH3_-2" target="y1ir7VsaiNvri5X7GH3_-0" edge="1">
          <mxGeometry relative="1" as="geometry">
            <mxPoint x="38" y="313" as="targetPoint" />
          </mxGeometry>
        </mxCell>
        <mxCell id="y1ir7VsaiNvri5X7GH3_-2" value="會員資訊管理頁面" style="rounded=1;whiteSpace=wrap;html=1;fillColor=#ffe6cc;strokeColor=#d79b00;" parent="WIyWlLk6GJQsqaUBKTNV-1" vertex="1">
          <mxGeometry x="319" y="1" width="120" height="60" as="geometry" />
        </mxCell>
        <mxCell id="y1ir7VsaiNvri5X7GH3_-26" style="edgeStyle=orthogonalEdgeStyle;rounded=0;orthogonalLoop=1;jettySize=auto;html=1;exitX=1;exitY=0.5;exitDx=0;exitDy=0;" parent="WIyWlLk6GJQsqaUBKTNV-1" source="y1ir7VsaiNvri5X7GH3_-3" target="y1ir7VsaiNvri5X7GH3_-4" edge="1">
          <mxGeometry relative="1" as="geometry" />
        </mxCell>
        <mxCell id="y1ir7VsaiNvri5X7GH3_-3" value="電影瀏覽頁面" style="rounded=1;whiteSpace=wrap;html=1;fillColor=#ffe6cc;strokeColor=#d79b00;" parent="WIyWlLk6GJQsqaUBKTNV-1" vertex="1">
          <mxGeometry x="162" y="157" width="120" height="60" as="geometry" />
        </mxCell>
        <mxCell id="y1ir7VsaiNvri5X7GH3_-27" style="edgeStyle=orthogonalEdgeStyle;rounded=0;orthogonalLoop=1;jettySize=auto;html=1;exitX=0.838;exitY=1.026;exitDx=0;exitDy=0;exitPerimeter=0;" parent="WIyWlLk6GJQsqaUBKTNV-1" source="y1ir7VsaiNvri5X7GH3_-4" target="y1ir7VsaiNvri5X7GH3_-16" edge="1">
          <mxGeometry relative="1" as="geometry" />
        </mxCell>
        <mxCell id="y1ir7VsaiNvri5X7GH3_-4" value="電影場次搜尋頁面" style="rounded=1;whiteSpace=wrap;html=1;fillColor=#ffe6cc;strokeColor=#d79b00;" parent="WIyWlLk6GJQsqaUBKTNV-1" vertex="1">
          <mxGeometry x="434" y="157" width="120" height="60" as="geometry" />
        </mxCell>
        <mxCell id="y1ir7VsaiNvri5X7GH3_-34" style="edgeStyle=orthogonalEdgeStyle;rounded=0;orthogonalLoop=1;jettySize=auto;html=1;exitX=0.5;exitY=1;exitDx=0;exitDy=0;entryX=0.5;entryY=0;entryDx=0;entryDy=0;" parent="WIyWlLk6GJQsqaUBKTNV-1" source="y1ir7VsaiNvri5X7GH3_-5" target="y1ir7VsaiNvri5X7GH3_-8" edge="1">
          <mxGeometry relative="1" as="geometry" />
        </mxCell>
        <mxCell id="y1ir7VsaiNvri5X7GH3_-5" value="指定座位頁面" style="rounded=1;whiteSpace=wrap;html=1;fillColor=#ffe6cc;strokeColor=#d79b00;" parent="WIyWlLk6GJQsqaUBKTNV-1" vertex="1">
          <mxGeometry x="574" y="282" width="120" height="60" as="geometry" />
        </mxCell>
        <mxCell id="y1ir7VsaiNvri5X7GH3_-30" style="edgeStyle=orthogonalEdgeStyle;rounded=0;orthogonalLoop=1;jettySize=auto;html=1;exitX=0;exitY=1;exitDx=0;exitDy=0;entryX=1;entryY=0.5;entryDx=0;entryDy=0;" parent="WIyWlLk6GJQsqaUBKTNV-1" source="y1ir7VsaiNvri5X7GH3_-6" target="y1ir7VsaiNvri5X7GH3_-4" edge="1">
          <mxGeometry relative="1" as="geometry" />
        </mxCell>
        <mxCell id="y1ir7VsaiNvri5X7GH3_-6" value="快速查看空位" style="rounded=1;whiteSpace=wrap;html=1;fillColor=#ffe6cc;strokeColor=#d79b00;" parent="WIyWlLk6GJQsqaUBKTNV-1" vertex="1">
          <mxGeometry x="614" y="93" width="120" height="60" as="geometry" />
        </mxCell>
        <mxCell id="y1ir7VsaiNvri5X7GH3_-35" style="edgeStyle=orthogonalEdgeStyle;rounded=0;orthogonalLoop=1;jettySize=auto;html=1;exitX=1;exitY=0.5;exitDx=0;exitDy=0;entryX=0;entryY=0.5;entryDx=0;entryDy=0;" parent="WIyWlLk6GJQsqaUBKTNV-1" source="y1ir7VsaiNvri5X7GH3_-8" target="y1ir7VsaiNvri5X7GH3_-9" edge="1">
          <mxGeometry relative="1" as="geometry" />
        </mxCell>
        <mxCell id="y1ir7VsaiNvri5X7GH3_-8" value="訂票頁面" style="rounded=1;whiteSpace=wrap;html=1;fillColor=#ffe6cc;strokeColor=#d79b00;" parent="WIyWlLk6GJQsqaUBKTNV-1" vertex="1">
          <mxGeometry x="450" y="414" width="120" height="60" as="geometry" />
        </mxCell>
        <mxCell id="y1ir7VsaiNvri5X7GH3_-36" style="edgeStyle=orthogonalEdgeStyle;rounded=0;orthogonalLoop=1;jettySize=auto;html=1;exitX=1;exitY=0.5;exitDx=0;exitDy=0;" parent="WIyWlLk6GJQsqaUBKTNV-1" source="y1ir7VsaiNvri5X7GH3_-9" target="y1ir7VsaiNvri5X7GH3_-10" edge="1">
          <mxGeometry relative="1" as="geometry" />
        </mxCell>
        <mxCell id="y1ir7VsaiNvri5X7GH3_-9" value="購買頁面" style="rounded=1;whiteSpace=wrap;html=1;fillColor=#ffe6cc;strokeColor=#d79b00;" parent="WIyWlLk6GJQsqaUBKTNV-1" vertex="1">
          <mxGeometry x="769" y="489" width="120" height="60" as="geometry" />
        </mxCell>
        <mxCell id="y1ir7VsaiNvri5X7GH3_-33" style="edgeStyle=orthogonalEdgeStyle;rounded=0;orthogonalLoop=1;jettySize=auto;html=1;exitX=0.5;exitY=0;exitDx=0;exitDy=0;entryX=1;entryY=0.5;entryDx=0;entryDy=0;" parent="WIyWlLk6GJQsqaUBKTNV-1" source="y1ir7VsaiNvri5X7GH3_-10" target="y1ir7VsaiNvri5X7GH3_-2" edge="1">
          <mxGeometry relative="1" as="geometry" />
        </mxCell>
        <mxCell id="y1ir7VsaiNvri5X7GH3_-10" value="購買成功頁面" style="rounded=1;whiteSpace=wrap;html=1;fillColor=#ffe6cc;strokeColor=#d79b00;" parent="WIyWlLk6GJQsqaUBKTNV-1" vertex="1">
          <mxGeometry x="936" y="336" width="120" height="60" as="geometry" />
        </mxCell>
        <mxCell id="y1ir7VsaiNvri5X7GH3_-20" style="edgeStyle=orthogonalEdgeStyle;rounded=0;orthogonalLoop=1;jettySize=auto;html=1;" parent="WIyWlLk6GJQsqaUBKTNV-1" source="y1ir7VsaiNvri5X7GH3_-15" target="y1ir7VsaiNvri5X7GH3_-8" edge="1">
          <mxGeometry relative="1" as="geometry" />
        </mxCell>
        <mxCell id="y1ir7VsaiNvri5X7GH3_-15" value="檢查登入" style="ellipse;whiteSpace=wrap;html=1;" parent="WIyWlLk6GJQsqaUBKTNV-1" vertex="1">
          <mxGeometry x="241" y="415" width="86" height="58" as="geometry" />
        </mxCell>
        <mxCell id="y1ir7VsaiNvri5X7GH3_-28" style="edgeStyle=orthogonalEdgeStyle;rounded=0;orthogonalLoop=1;jettySize=auto;html=1;" parent="WIyWlLk6GJQsqaUBKTNV-1" source="y1ir7VsaiNvri5X7GH3_-16" target="y1ir7VsaiNvri5X7GH3_-5" edge="1">
          <mxGeometry relative="1" as="geometry" />
        </mxCell>
        <mxCell id="y1ir7VsaiNvri5X7GH3_-16" value="檢查登入" style="ellipse;whiteSpace=wrap;html=1;fillColor=#ffe6cc;strokeColor=#d79b00;" parent="WIyWlLk6GJQsqaUBKTNV-1" vertex="1">
          <mxGeometry x="367" y="272" width="86" height="58" as="geometry" />
        </mxCell>
        <mxCell id="y1ir7VsaiNvri5X7GH3_-29" style="edgeStyle=orthogonalEdgeStyle;rounded=0;orthogonalLoop=1;jettySize=auto;html=1;exitX=0.75;exitY=0;exitDx=0;exitDy=0;entryX=-0.008;entryY=0.4;entryDx=0;entryDy=0;entryPerimeter=0;" parent="WIyWlLk6GJQsqaUBKTNV-1" source="y1ir7VsaiNvri5X7GH3_-4" target="y1ir7VsaiNvri5X7GH3_-6" edge="1">
          <mxGeometry relative="1" as="geometry" />
        </mxCell>
        <mxCell id="y1ir7VsaiNvri5X7GH3_-43" value="&lt;p style=&quot;text-align: left;&quot;&gt;&lt;font style=&quot;font-size: 10px;&quot;&gt;&lt;span style=&quot;background-color: initial;&quot;&gt;&lt;font style=&quot;&quot;&gt;log in&lt;br&gt;&lt;/font&gt;&lt;/span&gt;&lt;span style=&quot;background-color: initial;&quot;&gt;request :&lt;br&gt;&lt;/span&gt;&lt;span style=&quot;background-color: initial;&quot;&gt;1.account&lt;br&gt;&lt;/span&gt;&lt;span style=&quot;background-color: initial;&quot;&gt;2.password&lt;br&gt;&lt;/span&gt;&lt;span style=&quot;background-color: initial;&quot;&gt;response:&lt;br&gt;&lt;/span&gt;&lt;span style=&quot;background-color: initial;&quot;&gt;all information of Memeber and owned discountTicket booked orders&lt;/span&gt;&lt;/font&gt;&lt;/p&gt;" style="text;strokeColor=none;align=center;fillColor=none;html=1;verticalAlign=middle;whiteSpace=wrap;rounded=0;" parent="WIyWlLk6GJQsqaUBKTNV-1" vertex="1">
          <mxGeometry x="-232" y="-65" width="163" height="115" as="geometry" />
        </mxCell>
        <mxCell id="y1ir7VsaiNvri5X7GH3_-45" value="booked orders&lt;br&gt;booked seats&lt;br&gt;own discountticket" style="text;html=1;align=center;verticalAlign=middle;resizable=0;points=[];autosize=1;strokeColor=none;fillColor=none;" parent="WIyWlLk6GJQsqaUBKTNV-1" vertex="1">
          <mxGeometry x="327" y="-65" width="116" height="55" as="geometry" />
        </mxCell>
        <mxCell id="y1ir7VsaiNvri5X7GH3_-46" value="request:&lt;br&gt;movie Id&lt;br&gt;cinema Id&lt;br&gt;&lt;br&gt;response:&lt;br&gt;query of&amp;nbsp; showing" style="text;html=1;align=left;verticalAlign=middle;resizable=0;points=[];autosize=1;strokeColor=none;fillColor=none;" parent="WIyWlLk6GJQsqaUBKTNV-1" vertex="1">
          <mxGeometry x="291" y="90" width="112" height="98" as="geometry" />
        </mxCell>
        <mxCell id="y1ir7VsaiNvri5X7GH3_-48" value="request&lt;br&gt;showing&lt;br&gt;response:&lt;br&gt;seats" style="text;html=1;align=left;verticalAlign=middle;resizable=0;points=[];autosize=1;strokeColor=none;fillColor=none;" parent="WIyWlLk6GJQsqaUBKTNV-1" vertex="1">
          <mxGeometry x="-121" y="401" width="71" height="70" as="geometry" />
        </mxCell>
        <mxCell id="y1ir7VsaiNvri5X7GH3_-51" value="request&lt;br&gt;showing&lt;br&gt;response:&lt;br&gt;seats" style="text;html=1;align=left;verticalAlign=middle;resizable=0;points=[];autosize=1;strokeColor=none;fillColor=none;" parent="WIyWlLk6GJQsqaUBKTNV-1" vertex="1">
          <mxGeometry x="540" y="41" width="71" height="70" as="geometry" />
        </mxCell>
        <mxCell id="y1ir7VsaiNvri5X7GH3_-52" value="request:&lt;br&gt;cinema&lt;br&gt;movie&lt;br&gt;datetime&lt;br&gt;people cnt" style="text;html=1;align=left;verticalAlign=middle;resizable=0;points=[];autosize=1;strokeColor=none;fillColor=none;" parent="WIyWlLk6GJQsqaUBKTNV-1" vertex="1">
          <mxGeometry x="138" y="438" width="73" height="84" as="geometry" />
        </mxCell>
        <mxCell id="y1ir7VsaiNvri5X7GH3_-53" value="request:&lt;br&gt;cinema&lt;br&gt;movie&lt;br&gt;datatime&lt;br&gt;people cnt&lt;br&gt;(account password)&lt;br&gt;or SessionId(proof has loged in)&lt;br&gt;&lt;br&gt;response:&lt;br&gt;servlet will decide&amp;nbsp;&lt;br&gt;showing&lt;br&gt;seats[]" style="text;html=1;align=left;verticalAlign=middle;resizable=0;points=[];autosize=1;strokeColor=none;fillColor=none;" parent="WIyWlLk6GJQsqaUBKTNV-1" vertex="1">
          <mxGeometry x="324" y="475" width="188" height="185" as="geometry" />
        </mxCell>
        <mxCell id="y1ir7VsaiNvri5X7GH3_-55" value="request:&lt;br&gt;showing&lt;br&gt;(account or password)&lt;br&gt;or SessionId (proof already login)" style="text;html=1;align=left;verticalAlign=middle;resizable=0;points=[];autosize=1;strokeColor=none;fillColor=none;" parent="WIyWlLk6GJQsqaUBKTNV-1" vertex="1">
          <mxGeometry x="305" y="305" width="195" height="70" as="geometry" />
        </mxCell>
        <mxCell id="y1ir7VsaiNvri5X7GH3_-56" value="request:&lt;br&gt;showing" style="text;html=1;align=left;verticalAlign=middle;resizable=0;points=[];autosize=1;strokeColor=none;fillColor=none;" parent="WIyWlLk6GJQsqaUBKTNV-1" vertex="1">
          <mxGeometry x="544.5" y="213" width="62" height="41" as="geometry" />
        </mxCell>
        <mxCell id="y1ir7VsaiNvri5X7GH3_-57" value="request:&lt;br&gt;showing&lt;br&gt;seats[]&lt;br&gt;&lt;br&gt;response:&lt;br&gt;a page to comfire booking" style="text;html=1;align=left;verticalAlign=middle;resizable=0;points=[];autosize=1;strokeColor=none;fillColor=none;" parent="WIyWlLk6GJQsqaUBKTNV-1" vertex="1">
          <mxGeometry x="694" y="286" width="156" height="98" as="geometry" />
        </mxCell>
        <mxCell id="y1ir7VsaiNvri5X7GH3_-58" value="request:&lt;br&gt;productService[]&lt;br&gt;booking[]&lt;br&gt;&lt;br&gt;response:&lt;br&gt;productService[]&lt;br&gt;booking[]&lt;br&gt;member&#39;s avaiable discountTicket&lt;br&gt;avaiable product to buy" style="text;html=1;align=left;verticalAlign=middle;resizable=0;points=[];autosize=1;strokeColor=none;fillColor=none;" parent="WIyWlLk6GJQsqaUBKTNV-1" vertex="1">
          <mxGeometry x="578" y="478" width="198" height="142" as="geometry" />
        </mxCell>
        <mxCell id="y1ir7VsaiNvri5X7GH3_-59" value="request:&lt;br&gt;productService[]&lt;br&gt;&lt;br&gt;response:&lt;br&gt;create orders&amp;nbsp;" style="text;html=1;align=left;verticalAlign=middle;resizable=0;points=[];autosize=1;strokeColor=none;fillColor=none;" parent="WIyWlLk6GJQsqaUBKTNV-1" vertex="1">
          <mxGeometry x="1027" y="402" width="105" height="84" as="geometry" />
        </mxCell>
      </root>
    </mxGraphModel>
  </diagram>
</mxfile>
